<?xml version="1.0" encoding="UTF-8"?>
<svg xmlns="http://www.w3.org/2000/svg" xmlns:xlink="http://www.w3.org/1999/xlink" width="16px" height="16px" viewBox="0 0 16 16" version="1.1">
<g id="surface1">
<path style=" stroke:none;fill-rule:nonzero;fill:rgb(93.725491%,94.509804%,96.078432%);fill-opacity:1;" d="M 3 0 C 2.445312 0 2 0.445312 2 1 L 2 15 C 2 15.554688 2.445312 16 3 16 L 13 16 C 13.554688 16 14 15.554688 14 15 L 14 5 C 14 4.445312 9.554688 0 9 0 Z M 3.5 1 L 9 1 L 9 5 L 13 5 L 13 14.5 C 13 14.773438 12.773438 15 12.5 15 L 3.5 15 C 3.367188 15 3.242188 14.945312 3.148438 14.851562 C 3.054688 14.757812 3 14.632812 3 14.5 L 3 1.5 C 3 1.226562 3.226562 1 3.5 1 Z M 5 8 L 5 9 L 11 9 L 11 8 Z M 5 10 L 5 11 L 11 11 L 11 10 Z M 5 12 L 5 13 L 9 13 L 9 12 Z M 5 12 "/>
</g>
</svg>
