<?xml version="1.0" encoding="UTF-8"?>
<svg xmlns="http://www.w3.org/2000/svg" xmlns:xlink="http://www.w3.org/1999/xlink" width="20px" height="20px" viewBox="0 0 20 20" version="1.1">
<g id="surface1">
<path style=" stroke:none;fill-rule:nonzero;fill:rgb(18.431373%,21.176471%,23.921569%);fill-opacity:1;" d="M 3.75 0 C 3.054688 0 2.5 0.554688 2.5 1.25 L 2.5 18.75 C 2.5 19.445312 3.054688 20 3.75 20 L 16.25 20 C 16.945312 20 17.5 19.445312 17.5 18.75 L 17.5 6.25 C 17.5 5.554688 11.945312 0 11.25 0 Z M 4.375 1.25 L 11.25 1.25 L 11.25 6.25 L 16.25 6.25 L 16.25 18.125 C 16.25 18.46875 15.96875 18.75 15.625 18.75 L 4.375 18.75 C 4.210938 18.75 4.054688 18.679688 3.9375 18.5625 C 3.820312 18.445312 3.75 18.289062 3.75 18.125 L 3.75 1.875 C 3.75 1.53125 4.03125 1.25 4.375 1.25 Z M 6.25 10 L 6.25 11.25 L 13.75 11.25 L 13.75 10 Z M 6.25 12.5 L 6.25 13.75 L 13.75 13.75 L 13.75 12.5 Z M 6.25 15 L 6.25 16.25 L 11.25 16.25 L 11.25 15 Z M 6.25 15 "/>
</g>
</svg>
