<?xml version="1.0" encoding="UTF-8"?>
<svg xmlns="http://www.w3.org/2000/svg" xmlns:xlink="http://www.w3.org/1999/xlink" width="20px" height="20px" viewBox="0 0 20 20" version="1.1">
<g id="surface1">
<path style=" stroke:none;fill-rule:nonzero;fill:rgb(18.431373%,21.176471%,23.921569%);fill-opacity:1;" d="M 10 0 C 4.476562 0 0 4.476562 0 10 C 0 15.523438 4.476562 20 10 20 C 15.523438 20 20 15.523438 20 10 C 20 4.476562 15.523438 0 10 0 Z M 10 1.25 C 14.835938 1.25 18.75 5.164062 18.75 10 C 18.75 12.464844 17.695312 14.65625 16.054688 16.25 C 15.5 14.09375 13.585938 12.5 11.25 12.5 L 8.75 12.5 C 6.414062 12.5 4.5 14.09375 3.945312 16.25 C 2.304688 14.65625 1.25 12.464844 1.25 10 C 1.25 5.164062 5.164062 1.25 10 1.25 Z M 10 1.25 "/>
<path style=" stroke:none;fill-rule:nonzero;fill:rgb(18.431373%,21.176471%,23.921569%);fill-opacity:1;" d="M 10 4.0625 C 7.757812 4.0625 5.9375 5.8125 5.9375 7.96875 C 5.9375 10.125 7.757812 11.875 10 11.875 C 12.242188 11.875 14.0625 10.125 14.0625 7.96875 C 14.0625 5.8125 12.242188 4.0625 10 4.0625 Z M 10 4.0625 "/>
</g>
</svg>
