<?xml version="1.0" encoding="UTF-8"?>
<svg xmlns="http://www.w3.org/2000/svg" xmlns:xlink="http://www.w3.org/1999/xlink" width="16px" height="16px" viewBox="0 0 16 16" version="1.1">
<g id="surface1">
<path style=" stroke:none;fill-rule:nonzero;fill:rgb(87.450981%,88.235295%,90.980393%);fill-opacity:1;" d="M 8 0 C 3.582031 0 0 3.582031 0 8 C 0 12.417969 3.582031 16 8 16 C 12.417969 16 16 12.417969 16 8 C 16 3.582031 12.417969 0 8 0 Z M 8 1 C 11.867188 1 15 4.132812 15 8 C 15 9.972656 14.15625 11.726562 12.84375 13 C 12.398438 11.273438 10.867188 10 9 10 L 7 10 C 5.132812 10 3.601562 11.273438 3.15625 13 C 1.84375 11.726562 1 9.972656 1 8 C 1 4.132812 4.132812 1 8 1 Z M 8 1 "/>
<path style=" stroke:none;fill-rule:nonzero;fill:rgb(87.450981%,88.235295%,90.980393%);fill-opacity:1;" d="M 8 3.25 C 6.207031 3.25 4.75 4.648438 4.75 6.375 C 4.75 8.101562 6.207031 9.5 8 9.5 C 9.792969 9.5 11.25 8.101562 11.25 6.375 C 11.25 4.648438 9.792969 3.25 8 3.25 Z M 8 3.25 "/>
</g>
</svg>
